<?xml version="1.0" encoding="utf-8"?>
<!-- Generator: Adobe Illustrator 26.3.1, SVG Export Plug-In . SVG Version: 6.00 Build 0)  -->
<svg version="1.1" id="Ebene_1" xmlns="http://www.w3.org/2000/svg" xmlns:xlink="http://www.w3.org/1999/xlink" x="0px" y="0px"
	 viewBox="0 0 307 77" style="enable-background:new 0 0 307 77;" xml:space="preserve">
<style type="text/css">
	.st0{fill:#FFA500;}
</style>
<path class="st0" d="M0.1,50.6c-0.2-0.2-0.2-0.3-0.2-0.6V19.2c0-0.2,0.1-0.4,0.2-0.6c0.2-0.2,0.3-0.2,0.6-0.2h2.9
	c0.2,0,0.4,0.1,0.6,0.2c0.2,0.2,0.2,0.3,0.2,0.6v3.1c0.9-1.5,2.1-2.7,3.6-3.5c1.5-0.8,3.2-1.2,5-1.2c2.4,0,4.5,0.6,6.3,1.7
	c1.8,1.1,3.1,2.7,3.8,4.6c0.8-2,2-3.6,3.7-4.6c1.7-1.1,3.6-1.6,5.7-1.6c3.3,0,5.9,1,7.9,3c2,2,3,4.6,3,7.9V50c0,0.2-0.1,0.4-0.2,0.6
	c-0.2,0.2-0.3,0.2-0.6,0.2h-2.9c-0.2,0-0.4-0.1-0.6-0.2C39.1,50.5,39,50.3,39,50V29.4c0-2.4-0.6-4.3-1.9-5.6c-1.3-1.3-3-1.9-5.2-1.9
	c-2.4,0-4.3,0.8-5.8,2.5c-1.5,1.7-2.2,4-2.2,6.9V50c0,0.2-0.1,0.4-0.2,0.6c-0.2,0.2-0.3,0.2-0.6,0.2h-2.9c-0.2,0-0.4-0.1-0.6-0.2
	c-0.2-0.2-0.2-0.3-0.2-0.6V29.3c0-2.4-0.6-4.3-1.9-5.6c-1.3-1.3-3-1.9-5.2-1.9c-2.4,0-4.3,0.8-5.8,2.5c-1.5,1.7-2.2,4-2.2,6.9V50
	c0,0.2-0.1,0.4-0.2,0.6c-0.2,0.2-0.3,0.2-0.6,0.2H0.7C0.4,50.8,0.3,50.8,0.1,50.6z"/>
<path class="st0" d="M57.7,50.2c-0.4-0.4-0.6-0.9-0.6-1.5V22.6h-6c-0.2,0-0.4-0.1-0.6-0.2c-0.2-0.2-0.2-0.3-0.2-0.6v-2.6
	c0-0.2,0.1-0.4,0.2-0.6c0.2-0.2,0.3-0.2,0.6-0.2h8.4c0.6,0,1.1,0.2,1.5,0.6c0.4,0.4,0.6,0.9,0.6,1.5v26.2h5.9c0.2,0,0.4,0.1,0.6,0.2
	c0.2,0.2,0.2,0.3,0.2,0.6V50c0,0.2-0.1,0.4-0.2,0.6c-0.2,0.2-0.3,0.2-0.6,0.2h-8.3C58.6,50.8,58.1,50.6,57.7,50.2z M57.4,13.7
	c-0.2-0.2-0.2-0.3-0.2-0.6v-5c0-0.2,0.1-0.4,0.2-0.6c0.2-0.2,0.3-0.2,0.6-0.2h2.8c0.2,0,0.4,0.1,0.6,0.2c0.2,0.2,0.2,0.3,0.2,0.6v5
	c0,0.2-0.1,0.4-0.2,0.6c-0.2,0.2-0.3,0.2-0.6,0.2H58C57.8,13.9,57.6,13.8,57.4,13.7z"/>
<path class="st0" d="M75.7,50.6c-0.2-0.2-0.2-0.3-0.2-0.6V19.2c0-0.2,0.1-0.4,0.2-0.6c0.2-0.2,0.3-0.2,0.6-0.2h2.9
	c0.2,0,0.4,0.1,0.6,0.2c0.2,0.2,0.2,0.3,0.2,0.6v3.2c1-1.6,2.3-2.8,3.9-3.6c1.6-0.8,3.4-1.2,5.4-1.2c3.3,0,5.9,1,7.9,3
	c2,2,3,4.6,3,7.9V50c0,0.2-0.1,0.4-0.2,0.6c-0.2,0.2-0.3,0.2-0.6,0.2h-2.9c-0.2,0-0.4-0.1-0.6-0.2c-0.2-0.2-0.2-0.3-0.2-0.6V29.3
	c0-2.4-0.6-4.3-1.9-5.6c-1.3-1.3-3-1.9-5.2-1.9c-2.6,0-4.6,0.8-6.2,2.5c-1.6,1.7-2.4,4-2.4,6.9V50c0,0.2-0.1,0.4-0.2,0.6
	c-0.2,0.2-0.3,0.2-0.6,0.2h-2.9C76.1,50.8,75.9,50.7,75.7,50.6z"/>
<path class="st0" d="M255.4,23.8c-1.9,0-3.5,0.7-4.8,2s-2,2.9-2,4.8V31h13.5v-0.5c0-1.9-0.7-3.5-2-4.8S257.3,23.8,255.4,23.8z"/>
<path class="st0" d="M114.6,13.9h2.8c0.2,0,0.4-0.1,0.6-0.2c0.2-0.2,0.2-0.3,0.2-0.6v-5c0-0.2-0.1-0.4-0.2-0.6
	c-0.2-0.2-0.3-0.2-0.6-0.2h-2.8c-0.2,0-0.4,0.1-0.6,0.2c-0.2,0.2-0.2,0.3-0.2,0.6v5c0,0.2,0.1,0.4,0.2,0.6
	C114.2,13.8,114.4,13.9,114.6,13.9z"/>
<path class="st0" d="M125.3,0v46.6h-7V20.4c0-0.6-0.2-1.1-0.6-1.5c-0.4-0.4-0.9-0.6-1.5-0.6h-8.4c-0.2,0-0.4,0.1-0.6,0.2
	c-0.2,0.2-0.2,0.3-0.2,0.6v2.6c0,0.2,0.1,0.4,0.2,0.6c0.2,0.2,0.3,0.2,0.6,0.2h6v26.2c0,0.6,0.2,1.1,0.6,1.5
	c0.4,0.4,0.9,0.6,1.5,0.6h9.4V77h181.4V0H125.3z M162.1,6.7c0-0.3,0.1-0.6,0.3-0.9c0.2-0.2,0.5-0.3,0.9-0.3h3.9
	c0.3,0,0.6,0.1,0.9,0.3c0.2,0.2,0.3,0.5,0.3,0.9v6.3c0,0.3-0.1,0.6-0.3,0.9s-0.5,0.3-0.9,0.3h-3.9c-0.3,0-0.6-0.1-0.9-0.3
	s-0.3-0.5-0.3-0.9V6.7z M153.9,49.6c0,0.3-0.1,0.6-0.3,0.9c-0.2,0.2-0.5,0.3-0.9,0.3h-17.8c-0.7,0-1.3-0.2-1.8-0.7
	c-0.5-0.5-0.7-1.1-0.7-1.8V11c0-0.3,0.1-0.6,0.3-0.9c0.2-0.2,0.5-0.3,0.9-0.3h4.6c0.3,0,0.6,0.1,0.9,0.3c0.2,0.2,0.3,0.5,0.3,0.9
	v33.1h13.3c0.3,0,0.6,0.1,0.9,0.3c0.2,0.2,0.3,0.5,0.3,0.9V49.6z M174.6,49.6c0,0.3-0.1,0.6-0.3,0.9c-0.2,0.2-0.5,0.3-0.9,0.3h-8.7
	c-0.8,0-1.5-0.3-2-0.8c-0.6-0.6-0.8-1.2-0.8-2V24.5h-4.6c-0.3,0-0.6-0.1-0.9-0.3c-0.2-0.2-0.3-0.5-0.3-0.9v-4.1
	c0-0.3,0.1-0.6,0.3-0.9s0.5-0.3,0.9-0.3h8.7c0.8,0,1.5,0.3,2,0.8c0.6,0.6,0.8,1.2,0.8,2v23.5h4.6c0.3,0,0.6,0.1,0.9,0.3
	c0.2,0.2,0.3,0.5,0.3,0.9V49.6z M207.9,49.6c0,0.3-0.1,0.6-0.3,0.9c-0.2,0.2-0.5,0.3-0.9,0.3h-4.5c-0.3,0-0.6-0.1-0.9-0.3
	c-0.2-0.2-0.3-0.5-0.3-0.9V30.1c0-2-0.5-3.6-1.5-4.7c-1-1.1-2.5-1.6-4.4-1.6c-2.3,0-4,0.7-5.4,2.2c-1.3,1.5-2,3.5-2,6.1v17.6
	c0,0.3-0.1,0.6-0.3,0.9c-0.2,0.2-0.5,0.3-0.9,0.3h-4.5c-0.3,0-0.6-0.1-0.9-0.3c-0.2-0.2-0.3-0.5-0.3-0.9V19.2c0-0.3,0.1-0.6,0.3-0.9
	s0.5-0.3,0.9-0.3h4.5c0.3,0,0.6,0.1,0.9,0.3s0.3,0.5,0.3,0.9v2.7c1.1-1.5,2.3-2.6,3.8-3.4c1.5-0.8,3.1-1.2,4.8-1.2
	c2.2,0,4.1,0.5,5.9,1.5c1.7,1,3.1,2.5,4.1,4.3c1,1.8,1.5,3.9,1.5,6.2V49.6z M236.5,23.2c0,0.3-0.1,0.6-0.3,0.9s-0.5,0.3-0.9,0.3
	h-9.7v16.1c0,1.1,0.3,2.1,1,2.8c0.7,0.7,1.6,1,2.7,1l6,0.1c0.3,0,0.6,0.1,0.9,0.3c0.2,0.2,0.3,0.5,0.3,0.9v4c0,0.3-0.1,0.6-0.3,0.9
	c-0.2,0.2-0.5,0.3-0.9,0.3h-6.5c-3,0-5.4-0.9-7.3-2.8c-1.9-1.8-2.8-4.2-2.8-7.2V24.4h-4c-0.3,0-0.6-0.1-0.9-0.3
	c-0.2-0.2-0.3-0.5-0.3-0.9v-4c0-0.3,0.1-0.6,0.3-0.9s0.5-0.3,0.9-0.3h4v-6.2c0-0.3,0.1-0.6,0.3-0.9c0.2-0.2,0.5-0.3,0.9-0.3h4.5
	c0.3,0,0.6,0.1,0.9,0.3c0.2,0.2,0.3,0.5,0.3,0.9V18h9.7c0.3,0,0.6,0.1,0.9,0.3s0.3,0.5,0.3,0.9V23.2z M269.1,34.8
	c0,0.7-0.2,1.3-0.7,1.8c-0.5,0.5-1.1,0.7-1.7,0.7h-18v0.3c0,1.9,0.7,3.5,2,4.8c1.3,1.3,2.9,2,4.8,2h9.1c0.3,0,0.6,0.1,0.9,0.3
	c0.2,0.2,0.3,0.5,0.3,0.9v4.1c0,0.3-0.1,0.6-0.3,0.9c-0.2,0.2-0.5,0.3-0.9,0.3h-9.1c-2.5,0-4.8-0.6-6.9-1.8c-2.1-1.2-3.7-2.9-5-5
	c-1.2-2.1-1.8-4.4-1.8-6.9v-6.2c0-2.5,0.6-4.8,1.8-6.9c1.2-2.1,2.9-3.8,5-5c2.1-1.2,4.4-1.8,6.9-1.8s4.8,0.6,6.9,1.8
	c2.1,1.2,3.7,2.9,5,5c1.2,2.1,1.8,4.4,1.8,6.9V34.8z M298.9,23.2c0,0.3-0.1,0.6-0.3,0.9c-0.2,0.2-0.5,0.3-0.9,0.3h-1.5
	c-1,0-1.9,0.2-2.6,0.5c-0.7,0.3-1.8,1.1-3.3,2.3l-3.2,2.5v14.5h5.7c0.3,0,0.6,0.1,0.9,0.3s0.3,0.5,0.3,0.9v4.2
	c0,0.3-0.1,0.6-0.3,0.9c-0.2,0.2-0.5,0.3-0.9,0.3h-16.8c-0.3,0-0.6-0.1-0.9-0.3c-0.2-0.2-0.3-0.5-0.3-0.9v-4.2
	c0-0.3,0.1-0.6,0.3-0.9c0.2-0.2,0.5-0.3,0.9-0.3h4.4V24.4h-4.9c-0.3,0-0.6-0.1-0.9-0.3s-0.3-0.5-0.3-0.9v-4.1c0-0.3,0.1-0.6,0.3-0.9
	s0.5-0.3,0.9-0.3h8.9c0.7,0,1.3,0.2,1.8,0.7c0.5,0.5,0.7,1.1,0.7,1.8v2.1L290,20c1.1-0.9,2.1-1.6,3-1.9c0.8-0.4,1.8-0.5,3-0.5h1.8
	c0.3,0,0.6,0.1,0.9,0.3c0.2,0.2,0.3,0.5,0.3,0.9V23.2z"/>
</svg>
